<svg width="512" height="512" viewBox="0 0 512 512" xmlns="http://www.w3.org/2000/svg">
  <defs>
    <linearGradient id="bg" x1="0" y1="0" x2="512" y2="512" gradientUnits="userSpaceOnUse">
      <stop offset="0" stop-color="#ffab91"/>
      <stop offset="0.35" stop-color="#ffd98e"/>
      <stop offset="0.68" stop-color="#a8e6a1"/>
      <stop offset="1" stop-color="#8ed8f8"/>
    </linearGradient>
    <radialGradient id="glow" cx="50%" cy="42%" r="60%">
      <stop offset="0" stop-color="#ffffff" stop-opacity="0.55"/>
      <stop offset="1" stop-color="#ffffff" stop-opacity="0"/>
    </radialGradient>
  </defs>

  <!-- app-icon squircle background -->
  <rect x="0" y="0" width="512" height="512" rx="112" fill="url(#bg)"/>
  <rect x="0" y="0" width="512" height="512" rx="112" fill="url(#glow)"/>

  <!-- centered spark / four-point star emblem, kept inside the ~70% safe
       zone so this also works as a maskable icon without clipping -->
  <g transform="translate(256,256)">
    <path
      d="M0,-150 C10,-55 30,-30 130,-14 C30,2 10,28 0,120 C-10,28 -30,2 -130,-14 C-30,-30 -10,-55 0,-150 Z"
      fill="#2c1f3d"
      opacity="0.92"
    />
    <path
      d="M92,60 C96,84 102,90 126,94 C102,98 96,104 92,128 C88,104 82,98 58,94 C82,90 88,84 92,60 Z"
      fill="#2c1f3d"
      opacity="0.75"
    />
    <path
      d="M-96,-70 C-93,-54 -88,-49 -72,-46 C-88,-43 -93,-38 -96,-22 C-99,-38 -104,-43 -120,-46 C-104,-49 -99,-54 -96,-70 Z"
      fill="#2c1f3d"
      opacity="0.6"
    />
  </g>
</svg>
